<svg width="128" height="128" viewBox="0 0 128 128" fill="none" xmlns="http://www.w3.org/2000/svg">
<rect width="128" height="128" fill="white"/>
<path d="M69.9026 109.715C68.6188 113.004 64.0055 113.155 62.5123 109.955L49 80.9999C49 80.9999 32 52 43.5 42.5C52.7528 34.8564 70.5702 33.0349 83.5 40.5C95.6244 47.5 87.5 66.9999 81.5 80.9999C77.843 89.533 73.0715 101.595 69.9026 109.715Z" fill="#E57E2B"/>
<ellipse cx="64.0981" cy="22.5" rx="3" ry="11.5" fill="#289700"/>
<ellipse cx="71.0981" cy="25" rx="3" ry="9" transform="rotate(30 71.0981 25)" fill="#289700"/>
<ellipse cx="57.0981" cy="25" rx="3" ry="9" transform="rotate(-30 57.0981 25)" fill="#289700"/>
<path d="M62 60.5L40.5 59L42.5 66L62 60.5Z" fill="#BF6F2E"/>
<path d="M70.5 86L52 86.5L55 92.5L70.5 86Z" fill="#BF6F2E"/>
<path d="M62 70.7143L85 72L86.5 67.5L62 70.7143Z" fill="#BF6F2E"/>
</svg>
